# xmcd CD database file
#
# Track frame offsets:
#	150
#	19700
#	49701
#	78215
#	90775
#	113909
#	139872
#	164056
#	185178
#	207282
#	241411
#	266217
#
# Disc length: 3896 seconds
#
# Revision: 0
# Processed by: cddbd v1.5.1PL2 Copyright (c) Steve Scherf et al.
# Submitted via: CDex 1.51
#
DISCID=a30f360c
DTITLE=Hafez Modirzadeh - Dandelion
DYEAR=2003
DGENRE=Jazz
TTITLE0=All Got Rhythm
TTITLE1=Babylon
TTITLE2=Maqam X
TTITLE3=Chelsea Bridge
TTITLE4=Safa
TTITLE5=Stairway to the Stars
TTITLE6=Mystique Pratique
TTITLE7=Erfan
TTITLE8=Tag
TTITLE9=When Night Withers Away
TTITLE10=Dandelion
TTITLE11=Now's the Time
EXTD=YEAR: 2003
EXTT0=
EXTT1=
EXTT2=
EXTT3=
EXTT4=
EXTT5=
EXTT6=
EXTT7=
EXTT8=
EXTT9=
EXTT10=
EXTT11=
PLAYORDER=
